<svg width="31" height="33" viewBox="0 0 31 33" fill="none" xmlns="http://www.w3.org/2000/svg">
<path d="M21.2857 9.34694V7C21.2857 4.23858 19.0471 2 16.2857 2H2M2 2V25.1383C2 27.3844 3.49768 29.3548 5.66178 29.9559L8.59609 30.771C10.82 31.3888 13.0204 29.7163 13.0204 27.4082V27.4082M2 2L9.4815 4.28601C11.5842 4.9285 13.0204 6.86914 13.0204 9.06777V27.4082M13.0204 27.4082H16.2857C19.0471 27.4082 21.2857 25.1696 21.2857 22.4082V19.7551" stroke="black" stroke-width="3"/>
<path d="M30.5303 15.5303C30.8232 15.2374 30.8232 14.7626 30.5303 14.4697L25.7574 9.6967C25.4645 9.40381 24.9896 9.40381 24.6967 9.6967C24.4038 9.98959 24.4038 10.4645 24.6967 10.7574L28.9393 15L24.6967 19.2426C24.4038 19.5355 24.4038 20.0104 24.6967 20.3033C24.9896 20.5962 25.4645 20.5962 25.7574 20.3033L30.5303 15.5303ZM17 15.75H30V14.25H17V15.75Z" fill="black"/>
</svg>
