<svg width="56" height="56" viewBox="0 0 56 56" fill="none" xmlns="http://www.w3.org/2000/svg">
<path fill-rule="evenodd" clip-rule="evenodd" d="M18.853 21.7455H37.121C37.7714 21.7455 38 21.3547 38 20.8727C38 20.3907 37.7714 20 37.121 20H18.853C18.2027 20 18 20.3907 18 20.8727C18 21.3547 18.2027 21.7455 18.853 21.7455ZM18.853 28.8727H37.121C37.7714 28.8727 38 28.482 38 28C38 27.518 37.7714 27.1273 37.121 27.1273H18.853C18.2027 27.1273 18 27.518 18 28C18 28.482 18.2027 28.8727 18.853 28.8727ZM37.121 36H18.853C18.2027 36 18 35.6093 18 35.1273C18 34.6453 18.2027 34.2545 18.853 34.2545H37.121C37.7714 34.2545 38 34.6453 38 35.1273C38 35.6093 37.7714 36 37.121 36Z" fill="#202020"/>
</svg>
