<svg width="56" height="56" viewBox="0 0 56 56" fill="none" xmlns="http://www.w3.org/2000/svg">
<path fill-rule="evenodd" clip-rule="evenodd" d="M28.4593 29.862L22.6865 35.6349C22.2266 36.0947 21.7721 35.9162 21.3881 35.5192C21.0042 35.1222 20.8362 34.6571 21.2961 34.1972L27.0453 28.448L21.2727 22.6754C20.8129 22.2156 20.9914 21.761 21.3884 21.3771C21.7854 20.9931 22.2505 20.8252 22.7104 21.2851L28.4593 27.034L34.2135 21.2798C34.6734 20.8199 35.1463 20.9801 35.5303 21.3771C35.9142 21.7741 36.0638 22.2576 35.6039 22.7174L29.8733 28.448L35.6278 34.2025C36.0877 34.6624 35.9275 35.1353 35.5305 35.5192C35.1335 35.9031 34.65 36.0527 34.1901 35.5929L28.4593 29.862Z" fill="#202020"/>
</svg>
